<svg width="20" height="14" viewBox="0 0 20 14" fill="none" xmlns="http://www.w3.org/2000/svg">
<path d="M9 12C9.06667 12.2667 9.1 12.6 9.1 13C9.1 13.3833 9.06667 13.7167 9 14H7C6.93333 13.7167 6.9 13.3833 6.9 13C6.9 12.6 6.93333 12.2667 7 12H6.25C6.18333 11.7167 6.15 11.3833 6.15 11C6.15 10.6 6.18333 10.2667 6.25 10H5.75C5.68333 9.71667 5.65 9.38333 5.65 9C5.65 8.6 5.68333 8.26667 5.75 8H4.25C4.31667 8.26667 4.35 8.6 4.35 9C4.35 9.38333 4.31667 9.71667 4.25 10H3.75C3.81667 10.2667 3.85 10.6 3.85 11C3.85 11.3833 3.81667 11.7167 3.75 12H3C3.06667 12.2667 3.1 12.6 3.1 13C3.1 13.3833 3.06667 13.7167 3 14H1C0.933333 13.7167 0.9 13.3833 0.9 13C0.9 12.6 0.933333 12.2667 1 12H1.75C1.68333 11.7167 1.65 11.3833 1.65 11C1.65 10.6 1.68333 10.2667 1.75 10H2.75C2.68333 9.71667 2.65 9.38333 2.65 9C2.65 8.6 2.68333 8.26667 2.75 8H3.5C3.43333 7.71667 3.4 7.38333 3.4 7C3.4 6.6 3.43333 6.26667 3.5 6H2.75C2.68333 5.71667 2.65 5.38333 2.65 5C2.65 4.6 2.68333 4.26667 2.75 4H1.75C1.68333 3.71667 1.65 3.38333 1.65 3C1.65 2.6 1.68333 2.26667 1.75 2H1C0.933333 1.71667 0.9 1.38333 0.9 0.999999C0.9 0.599999 0.933333 0.266666 1 -5.96046e-08H3C3.06667 0.266666 3.1 0.599999 3.1 0.999999C3.1 1.38333 3.06667 1.71667 3 2H3.75C3.81667 2.26667 3.85 2.6 3.85 3C3.85 3.38333 3.81667 3.71667 3.75 4H4.25C4.31667 4.26667 4.35 4.6 4.35 5C4.35 5.38333 4.31667 5.71667 4.25 6H5.75C5.68333 5.71667 5.65 5.38333 5.65 5C5.65 4.6 5.68333 4.26667 5.75 4H6.25C6.18333 3.71667 6.15 3.38333 6.15 3C6.15 2.6 6.18333 2.26667 6.25 2H7C6.93333 1.71667 6.9 1.38333 6.9 0.999999C6.9 0.599999 6.93333 0.266666 7 -5.96046e-08H9C9.06667 0.266666 9.1 0.599999 9.1 0.999999C9.1 1.38333 9.06667 1.71667 9 2H8.25C8.31667 2.26667 8.35 2.6 8.35 3C8.35 3.38333 8.31667 3.71667 8.25 4H7.25C7.31667 4.26667 7.35 4.6 7.35 5C7.35 5.38333 7.31667 5.71667 7.25 6H6.5C6.56667 6.26667 6.6 6.6 6.6 7C6.6 7.38333 6.56667 7.71667 6.5 8H7.25C7.31667 8.26667 7.35 8.6 7.35 9C7.35 9.38333 7.31667 9.71667 7.25 10H8.25C8.31667 10.2667 8.35 10.6 8.35 11C8.35 11.3833 8.31667 11.7167 8.25 12H9ZM19.1098 3C19.1098 3.38333 19.0764 3.71667 19.0098 4C19.0764 4.26667 19.1098 4.6 19.1098 5C19.1098 5.38333 19.0764 5.71667 19.0098 6H18.0098C18.0764 6.26667 18.1098 6.6 18.1098 7C18.1098 7.38333 18.0764 7.71667 18.0098 8H13.0098C13.0764 8.26667 13.1098 8.6 13.1098 9C13.1098 9.38333 13.0764 9.71667 13.0098 10C13.0764 10.2667 13.1098 10.6 13.1098 11C13.1098 11.3833 13.0764 11.7167 13.0098 12C13.0764 12.2667 13.1098 12.6 13.1098 13C13.1098 13.3833 13.0764 13.7167 13.0098 14H11.0098C10.9431 13.7167 10.9098 13.3833 10.9098 13C10.9098 12.6 10.9431 12.2667 11.0098 12C10.9431 11.7167 10.9098 11.3833 10.9098 11C10.9098 10.6 10.9431 10.2667 11.0098 10C10.9431 9.71667 10.9098 9.38333 10.9098 9C10.9098 8.6 10.9431 8.26667 11.0098 8C10.9431 7.71667 10.9098 7.38333 10.9098 7C10.9098 6.6 10.9431 6.26667 11.0098 6C10.9431 5.71667 10.9098 5.38333 10.9098 5C10.9098 4.6 10.9431 4.26667 11.0098 4C10.9431 3.71667 10.9098 3.38333 10.9098 3C10.9098 2.6 10.9431 2.26667 11.0098 2C10.9431 1.71667 10.9098 1.38333 10.9098 0.999999C10.9098 0.599999 10.9431 0.266666 11.0098 -5.96046e-08H18.0098C18.0764 0.266666 18.1098 0.599999 18.1098 0.999999C18.1098 1.38333 18.0764 1.71667 18.0098 2H19.0098C19.0764 2.26667 19.1098 2.6 19.1098 3ZM17.0098 6C16.9431 5.71667 16.9098 5.38333 16.9098 5C16.9098 4.6 16.9431 4.26667 17.0098 4C16.9431 3.71667 16.9098 3.38333 16.9098 3C16.9098 2.6 16.9431 2.26667 17.0098 2H13.0098C13.0764 2.26667 13.1098 2.6 13.1098 3C13.1098 3.38333 13.0764 3.71667 13.0098 4C13.0764 4.26667 13.1098 4.6 13.1098 5C13.1098 5.38333 13.0764 5.71667 13.0098 6H17.0098Z" fill="#3BFF31"/>
</svg>
